<svg width="18" height="20" viewBox="0 0 18 20" fill="none" xmlns="http://www.w3.org/2000/svg">
<path d="M8.78928 0C7.8199 0 7.03131 0.788593 7.03131 1.75797V8.82889C7.03131 9.79827 7.8199 10.5869 8.78928 10.5869C9.75865 10.5869 10.5472 9.79827 10.5472 8.82889V1.75797C10.5472 0.788593 9.75865 0 8.78928 0Z" fill="white"/>
<path d="M14.6725 4.64656C13.9327 3.97926 12.856 4.05515 12.21 4.71972C11.5603 5.38804 11.5101 6.51996 12.3331 7.27035C13.6394 8.45765 14.2996 10.257 13.9869 12.0722C13.5623 14.5358 11.4198 16.4772 8.7896 16.4829C6.09543 16.4889 4.03145 14.4997 3.6057 12.162C3.27379 10.3359 3.88613 8.50757 5.24523 7.27148C6.06594 6.52433 6.02308 5.38742 5.37156 4.71836C4.72441 4.05379 3.64129 3.98199 2.895 4.65742C0.828248 6.52941 -0.250579 9.29683 0.0495772 12.1019C0.526842 16.562 4.29262 19.9997 8.81031 19.9997C13.2762 19.9997 16.9327 16.5538 17.4965 12.3926C17.8897 9.49296 16.8339 6.59734 14.6725 4.64656Z" fill="white"/>
</svg>
